<svg width="21" height="21" viewBox="0 0 21 21" fill="none" xmlns="http://www.w3.org/2000/svg">
<path d="M8.75206 19.9419C6.83639 19.9419 4.92072 19.9425 3.00505 19.9419C1.50034 19.9412 0.500492 18.9407 0.500492 17.4353C0.499836 13.8659 0.499836 10.2966 0.500492 6.72715C0.500492 5.22114 1.50034 4.22326 3.00701 4.2226C5.29952 4.22194 7.59136 4.22194 9.88387 4.22326C10.2909 4.22326 10.587 4.44253 10.6907 4.80885C10.7826 5.13382 10.6369 5.49621 10.3401 5.67872C10.1813 5.77654 10.006 5.79623 9.82216 5.79558C7.5546 5.79361 5.28639 5.79426 3.01883 5.79426C2.36233 5.79426 2.07281 6.08116 2.07281 6.73175C2.07281 10.3011 2.07281 13.8705 2.07281 17.4399C2.07281 18.0722 2.37087 18.3695 3.00308 18.3695C6.83442 18.3695 10.6658 18.3695 14.4971 18.3695C15.1457 18.3695 15.4339 18.0774 15.4339 17.4209C15.4339 15.3989 15.4326 13.3769 15.4346 11.3548C15.4352 10.7423 15.9775 10.3497 16.5139 10.5657C16.8257 10.6911 17.0049 10.9806 17.0049 11.3699C17.0056 13.2364 17.0063 15.1028 17.0043 16.9699C17.0036 17.3618 17.0345 17.7557 16.9367 18.1424C16.6655 19.2125 15.7438 19.9366 14.6218 19.9399C12.6655 19.9458 10.7084 19.9419 8.75206 19.9419Z" fill="#46BCFF" stroke="#46BCFF" stroke-width="0.2"/>
<path d="M16.2222 8.93647C14.0367 8.93318 12.2845 7.17048 12.2897 4.97973C12.2943 2.8205 14.0708 1.07158 16.2524 1.07814C18.388 1.08471 20.1514 2.85923 20.1487 4.99877C20.1454 7.17573 18.3867 8.93975 16.2222 8.93647ZM13.8608 5.01584C13.8634 6.30258 14.919 7.36218 16.2012 7.36546C17.5129 7.36874 18.5744 6.31046 18.5751 4.99877C18.5757 3.70546 17.507 2.64456 16.2091 2.64981C14.9098 2.65572 13.8588 3.71465 13.8608 5.01584Z" fill="#46BCFF" stroke="#46BCFF" stroke-width="0.2"/>
<path d="M7.96855 12.0815C6.79078 12.0815 5.61302 12.0848 4.43591 12.0796C4.02297 12.0776 3.69078 11.7736 3.64811 11.3824C3.60544 10.9937 3.85294 10.6359 4.23896 10.5355C4.30921 10.5171 4.38405 10.5105 4.45692 10.5105C6.79603 10.5092 9.13449 10.5086 11.4736 10.5105C11.9049 10.5112 12.2417 10.8066 12.2864 11.2077C12.3303 11.6023 12.0664 11.9739 11.6712 12.0618C11.5767 12.0828 11.4762 12.0809 11.3784 12.0809C10.242 12.0822 9.10495 12.0815 7.96855 12.0815Z" fill="#46BCFF" stroke="#46BCFF" stroke-width="0.2"/>
<path d="M6.40026 8.93788C5.77068 8.93788 5.14175 8.9392 4.51216 8.93723C3.99878 8.93591 3.64099 8.60635 3.64558 8.14286C3.65018 7.6879 4.00206 7.36622 4.50297 7.36622C5.76149 7.36491 7.02066 7.36491 8.27917 7.36622C8.79321 7.36688 9.15035 7.69578 9.14575 8.15993C9.14115 8.61357 8.7873 8.93657 8.2877 8.93788C7.65877 8.9392 7.02919 8.93788 6.40026 8.93788Z" fill="#46BCFF" stroke="#46BCFF" stroke-width="0.2"/>
</svg>
