<svg width="21" height="19" viewBox="0 0 21 19" fill="none" xmlns="http://www.w3.org/2000/svg">
<path d="M4.5 4.1167V1.1167C4.5 0.851483 4.60536 0.597129 4.79289 0.409592C4.98043 0.222056 5.23478 0.116699 5.5 0.116699H11.914L13.914 2.1167H19.5C19.7652 2.1167 20.0196 2.22206 20.2071 2.40959C20.3946 2.59713 20.5 2.85148 20.5 3.1167V13.1167C20.5 13.3819 20.3946 13.6363 20.2071 13.8238C20.0196 14.0113 19.7652 14.1167 19.5 14.1167H16.5V17.1167C16.5 17.3819 16.3946 17.6363 16.2071 17.8238C16.0196 18.0113 15.7652 18.1167 15.5 18.1167H1.5C1.23478 18.1167 0.98043 18.0113 0.792893 17.8238C0.605357 17.6363 0.5 17.3819 0.5 17.1167V5.1167C0.5 4.85148 0.605357 4.59713 0.792893 4.40959C0.98043 4.22206 1.23478 4.1167 1.5 4.1167H4.5ZM4.5 6.1167H2.5V16.1167H14.5V14.1167H4.5V6.1167ZM6.5 2.1167V12.1167H18.5V4.1167H13.086L11.086 2.1167H6.5Z" fill="#46BCFF"/>
</svg>
