<svg width="15" height="19" viewBox="0 0 15 19" fill="none" xmlns="http://www.w3.org/2000/svg">
<path d="M5.88185 13.8308H6.76218V9.54486H8.47655V13.8308H9.35688C9.47002 12.8004 9.99548 11.9501 10.8484 11.0218C10.9452 10.9172 11.5616 10.2786 11.6344 10.1877C12.2398 9.4314 12.6193 8.51943 12.7291 7.55686C12.839 6.59429 12.6747 5.62028 12.2552 4.74698C11.8358 3.87368 11.1782 3.13663 10.3582 2.62068C9.53816 2.10474 8.5891 1.8309 7.62029 1.83069C6.65148 1.83048 5.70231 2.10392 4.88209 2.61951C4.06186 3.13511 3.40395 3.87188 2.98411 4.745C2.56427 5.61812 2.39958 6.59206 2.509 7.55468C2.61842 8.51729 2.99751 9.42943 3.6026 10.186C3.67632 10.2778 4.29435 10.9172 4.3895 11.0209C5.24325 11.9501 5.7687 12.8004 5.88185 13.8308ZM5.905 15.5451V16.4023H9.33373V15.5451H5.905ZM2.26539 11.2592C1.45809 10.2506 0.952144 9.03438 0.805837 7.75075C0.659529 6.46711 0.878814 5.16826 1.43843 4.00381C1.99804 2.83935 2.87522 1.85667 3.96892 1.16896C5.06262 0.481253 6.32835 0.116492 7.62029 0.116699C8.91224 0.116906 10.1778 0.482072 11.2713 1.17013C12.3648 1.85819 13.2417 2.84115 13.8009 4.00579C14.3601 5.17042 14.579 6.46934 14.4323 7.75293C14.2856 9.03652 13.7792 10.2525 12.9716 11.2609C12.4402 11.9227 11.0481 12.9736 11.0481 14.2594V16.4023C11.0481 16.857 10.8675 17.2931 10.546 17.6146C10.2245 17.9361 9.78841 18.1167 9.33373 18.1167H5.905C5.45032 18.1167 5.01426 17.9361 4.69276 17.6146C4.37125 17.2931 4.19063 16.857 4.19063 16.4023V14.2594C4.19063 12.9736 2.79771 11.9227 2.26539 11.2592Z" fill="#46BCFF"/>
</svg>
