<svg width="27" height="25" viewBox="0 0 27 25" fill="none" xmlns="http://www.w3.org/2000/svg">
<path d="M6.81122 3.82197C7.55726 2.55376 8.27474 1.26821 9.02179 0C10.3706 0.587446 11.7086 1.20039 13.0544 1.79447C14.4016 1.20447 15.7397 0.591016 17.0869 0C17.8345 1.2677 18.552 2.55376 19.298 3.82248C20.734 4.12793 22.1705 4.43083 23.6065 4.73425C23.477 6.20337 23.2944 7.66791 23.1567 9.13653C24.1445 10.2201 25.1088 11.3247 26.1087 12.3965V12.4343C25.1052 13.5011 24.1445 14.6086 23.1567 15.6902C23.2949 17.1588 23.4775 18.6234 23.6065 20.0925C22.17 20.3954 20.7335 20.6993 19.2975 21.0048C18.552 22.2735 17.8345 23.559 17.0869 24.8267C15.7397 24.2357 14.4016 23.6223 13.0544 23.0318C11.7086 23.6264 10.3711 24.2393 9.0223 24.8267C8.27524 23.5585 7.55675 22.273 6.81122 21.0043C5.37575 20.6952 3.93977 20.3893 2.50175 20.0925C2.63178 18.6229 2.81332 17.1583 2.95202 15.6892C1.96478 14.6051 0.998455 13.5011 0 12.4277V12.3782C1.01783 11.3328 1.96121 10.211 2.95202 9.13755C2.81383 7.66893 2.63229 6.20388 2.50175 4.73425C3.93926 4.43644 5.37575 4.13252 6.81122 3.82197ZM11.9187 14.6617C10.7673 13.5465 9.65054 12.3935 8.50778 11.2681C8.15337 11.599 7.81834 11.9498 7.47516 12.292C7.40427 12.3405 7.48382 12.4032 7.5185 12.4419C9.00445 13.9233 10.4853 15.4103 11.9713 16.8916C14.1395 14.4852 16.2843 12.0579 18.448 9.64748C18.4888 9.60822 18.5347 9.54039 18.4663 9.50011C18.1073 9.17885 17.7494 8.85606 17.3863 8.53939C15.5587 10.5751 13.7392 12.6194 11.9187 14.6617Z" fill="#46BCFF"/>
</svg>
