<svg width="34" height="34" viewBox="0 0 34 34" fill="none" xmlns="http://www.w3.org/2000/svg">
<rect width="34" height="34" rx="17" fill="white"/>
<path d="M22.3363 17.4478C22.1401 17.8791 21.8823 18.2764 21.6483 18.6865C20.1175 21.3693 18.5813 24.0489 17.0478 26.7298C17.0328 26.756 17.0278 26.788 17.0178 26.8169C17.005 26.8169 16.9919 26.8169 16.9792 26.8169C16.9681 26.778 16.9565 26.739 16.9453 26.7005C17.0074 26.6354 16.9785 26.554 16.9788 26.4804C16.9819 24.3037 16.9831 22.1266 16.9846 19.9498C18.6291 19.1683 20.2732 18.3863 21.9181 17.6058C22.0503 17.543 22.1867 17.4895 22.3212 17.4316C22.3263 17.437 22.3313 17.4424 22.3363 17.4478Z" fill="#8B46FF"/>
<path d="M16.9822 19.9492C16.9806 22.1259 16.9795 24.303 16.9764 26.4798C16.9764 26.5534 17.0049 26.6343 16.9429 26.6998C16.6569 26.2832 16.4261 25.8338 16.1748 25.3972C15.1673 23.644 14.1657 21.887 13.1613 20.1319C12.6538 19.2435 12.1454 18.3555 11.6641 17.4248C13.4369 18.2665 15.2094 19.1078 16.9822 19.9492Z" fill="#8B46FF"/>
<path d="M16.9688 7.24156C17.0104 7.12517 17.0366 7.21766 17.0562 7.25119C17.225 7.53793 17.3927 7.82544 17.5588 8.11372C18.8206 10.3039 20.0824 12.4949 21.3438 14.6852C21.5897 15.1122 21.8363 15.5388 22.0811 15.9666C22.1092 16.0156 22.1454 16.0645 22.1285 16.1277C22.0606 16.1312 22.0078 16.0903 21.9504 16.0649C20.6613 15.4918 19.3736 14.9152 18.0829 14.346C17.7164 14.1845 17.3642 13.9891 16.9768 13.877C16.9768 11.7226 16.9772 9.56783 16.9772 7.41345C16.9772 7.35641 16.9718 7.29898 16.9688 7.24156Z" fill="#8B46FF"/>
<path d="M16.9628 7.24219C16.9655 7.29961 16.9709 7.35704 16.9709 7.41408C16.9713 9.56846 16.9709 11.7232 16.9705 13.8776L16.9601 13.888C16.9061 13.9061 16.8499 13.92 16.7982 13.9431C15.6382 14.4592 14.4801 14.9791 13.3185 15.4917C12.8228 15.7102 12.3372 15.9518 11.8281 16.1395C11.9241 15.8389 12.1145 15.5884 12.2679 15.319C12.7828 14.4137 13.3057 13.513 13.8253 12.6104C14.3193 11.7521 14.8123 10.8931 15.3071 10.0352C15.8239 9.13835 16.3423 8.24268 16.8603 7.34663C16.8857 7.3027 16.9008 7.24951 16.9628 7.24219Z" fill="#8B46FF"/>
<path d="M16.9792 13.877C17.3665 13.9891 17.7191 14.1845 18.0853 14.346C19.376 14.9152 20.6636 15.4918 21.9527 16.0649C22.0102 16.0903 22.063 16.1312 22.1308 16.1277L22.1289 16.1265C22.1439 16.1385 22.1589 16.15 22.1736 16.162C22.1682 16.2364 22.0996 16.2368 22.0537 16.2583C20.4192 17.0349 18.784 17.8103 17.1483 18.5838C17.0952 18.6089 17.0447 18.6601 16.9753 18.6312C16.9765 17.3444 16.978 16.0572 16.978 14.7703C16.978 14.4759 16.9718 14.1818 16.9688 13.8874L16.9792 13.877Z" fill="#C4A2FF"/>
<path d="M16.9661 13.8877C16.9692 14.1821 16.9754 14.4762 16.9754 14.7706C16.9754 16.0575 16.9738 17.3447 16.9727 18.6316C16.4085 18.4042 15.8701 18.1221 15.3201 17.8642C14.1901 17.3347 13.064 16.7963 11.9371 16.261C11.8858 16.2367 11.8384 16.2039 11.7891 16.175C11.8022 16.1604 11.8153 16.1454 11.8284 16.1307C11.8284 16.1307 11.8338 16.1388 11.8338 16.1392C12.3429 15.9515 12.8285 15.7099 13.3241 15.4913C14.4857 14.9791 15.6438 14.4589 16.8039 13.9428C16.8559 13.9197 16.9118 13.9058 16.9661 13.8877Z" fill="#C4A2FF"/>
<path d="M11.8288 16.1299C11.8156 16.1447 11.8023 16.1599 11.7891 16.1747C11.8023 16.1599 11.8156 16.1447 11.8288 16.1299Z" fill="#CBEFFE"/>
<path d="M22.178 16.1618C22.1628 16.1498 22.1476 16.1381 22.1328 16.126C22.148 16.1381 22.1632 16.1498 22.178 16.1618Z" fill="#80C8FE"/>
<path d="M22.3164 17.4321C22.3239 17.4246 22.3365 17.4104 22.3377 17.4112C22.3578 17.4262 22.3472 17.4376 22.3318 17.4482C22.3271 17.4431 22.3219 17.4376 22.3164 17.4321Z" fill="#4EB2FE"/>
</svg>
