<svg width="20" height="19" viewBox="0 0 20 19" fill="none" xmlns="http://www.w3.org/2000/svg">
<path d="M10.0667 1.60556C12.3541 -0.448103 15.8889 -0.37994 18.0925 1.82758C20.2952 4.03608 20.3711 7.55331 18.3223 9.8475L10.0648 18.1167L1.80923 9.8475C-0.239573 7.55331 -0.162646 4.03024 2.03903 1.82758C4.24461 -0.377018 7.77255 -0.451025 10.0667 1.60556ZM16.7136 3.20351C15.253 1.74092 12.8965 1.68152 11.3677 3.05452L10.0677 4.22109L8.76677 3.0555C7.23309 1.68054 4.88145 1.74092 3.41691 3.20546C1.966 4.65636 1.89297 6.97879 3.22995 8.51344L10.0658 15.36L16.9016 8.51442C18.2395 6.97879 18.1665 4.65929 16.7136 3.20351Z" fill="#46BCFF"/>
</svg>
