<svg width="50" height="51" viewBox="0 0 50 51" fill="none" xmlns="http://www.w3.org/2000/svg">
<path d="M42.5972 43.1982H35.1944V31.5954C35.1944 28.8287 35.1389 25.2676 31.3333 25.2676C27.475 25.2676 26.8861 28.2787 26.8861 31.3926V43.1982H19.4806V19.3398H26.5917V22.5898H26.6889C27.6833 20.7176 30.1 18.7371 33.7111 18.7371C41.2111 18.7371 42.6 23.676 42.6 30.101V43.1982H42.5972ZM11.1194 16.076C10.5543 16.0767 9.99461 15.9659 9.4724 15.7499C8.95019 15.5339 8.47574 15.2169 8.07627 14.8172C7.67679 14.4174 7.36015 13.9428 7.14447 13.4204C6.9288 12.8981 6.81835 12.3383 6.81944 11.7732C6.81999 10.9227 7.07272 10.0915 7.54567 9.38469C8.01861 8.67787 8.69054 8.12716 9.47647 7.80221C10.2624 7.47726 11.127 7.39267 11.9611 7.55912C12.7951 7.72558 13.561 8.13561 14.162 8.73736C14.7629 9.33912 15.172 10.1056 15.3374 10.9398C15.5027 11.774 15.417 12.6385 15.0911 13.4241C14.7651 14.2096 14.2135 14.8808 13.5061 15.3528C12.7986 15.8249 11.9671 16.0765 11.1167 16.076H11.1194ZM14.8306 43.1982H7.40555V19.3398H14.8333V43.1982H14.8306ZM46.3056 0.589844H3.69167C1.64722 0.589844 0 2.20095 0 4.19262V46.9871C0 48.9787 1.65 50.5898 3.68889 50.5898H46.2944C48.3333 50.5898 50 48.9787 50 46.9871V4.19262C50 2.20095 48.3333 0.589844 46.2944 0.589844H46.3028H46.3056Z" fill="white"/>
</svg>
