<svg width="21" height="22" viewBox="0 0 21 22" fill="none" xmlns="http://www.w3.org/2000/svg">
<path d="M9.53071 0.716797L19.4297 2.1318L20.8437 12.0318L11.6517 21.2238C11.4642 21.4113 11.2099 21.5166 10.9447 21.5166C10.6795 21.5166 10.4252 21.4113 10.2377 21.2238L0.337708 11.3238C0.150237 11.1363 0.0449219 10.882 0.0449219 10.6168C0.0449219 10.3516 0.150237 10.0973 0.337708 9.9098L9.53071 0.716797ZM10.2377 2.8388L2.45871 10.6168L10.9447 19.1018L18.7227 11.3238L17.6627 3.8988L10.2377 2.8388ZM12.3577 9.2028C11.9826 8.82752 11.7719 8.31858 11.7719 7.78794C11.772 7.5252 11.8238 7.26504 11.9244 7.02231C12.025 6.77959 12.1724 6.55905 12.3582 6.3733C12.544 6.18754 12.7646 6.04021 13.0074 5.9397C13.2501 5.8392 13.5103 5.78749 13.7731 5.78754C14.3037 5.78763 14.8126 5.99852 15.1877 6.3738C15.5629 6.74908 15.7736 7.25802 15.7735 7.78865C15.7734 8.31929 15.5625 8.82815 15.1872 9.2033C14.8119 9.57845 14.303 9.78915 13.7724 9.78905C13.2417 9.78896 12.7329 9.57808 12.3577 9.2028Z" fill="#46BCFF"/>
</svg>
