<svg width="17" height="17" viewBox="0 0 17 17" fill="none" xmlns="http://www.w3.org/2000/svg">
<path d="M14.2276 15.0429C12.776 16.3007 10.9189 16.9919 8.99804 16.9893C4.57965 16.9893 0.998047 13.4077 0.998047 8.98925C0.998047 4.57086 4.57965 0.989258 8.99804 0.989258C13.4164 0.989258 16.998 4.57086 16.998 8.98925C16.998 10.6981 16.462 12.2821 15.55 13.5813L12.998 8.98925H15.398C15.3979 7.51422 14.8883 6.08451 13.9554 4.94197C13.0225 3.79943 11.7235 3.01421 10.2783 2.71914C8.83309 2.42408 7.33031 2.63727 6.02419 3.32267C4.71806 4.00807 3.68878 5.12359 3.11046 6.48052C2.53215 7.83745 2.44029 9.3525 2.85044 10.7694C3.26059 12.1862 4.14756 13.4179 5.36131 14.2561C6.57506 15.0943 8.04108 15.4875 9.51136 15.3692C10.9816 15.2509 12.3659 14.6283 13.43 13.6069L14.2276 15.0429Z" fill="white"/>
</svg>
