<svg width="21" height="21" viewBox="0 0 21 21" fill="none" xmlns="http://www.w3.org/2000/svg">
<path d="M1.87253 15.6414C1.4498 14.9104 1.1212 14.1289 0.894531 13.3154C1.38784 13.0645 1.80213 12.6821 2.09156 12.2103C2.381 11.7386 2.5343 11.196 2.5345 10.6425C2.53471 10.0891 2.38182 9.54637 2.09273 9.07442C1.80365 8.60248 1.38965 8.21969 0.896531 7.96842C1.34857 6.33391 2.20926 4.84138 3.39753 3.63142C3.86162 3.93315 4.40015 4.10059 4.95351 4.1152C5.50687 4.12982 6.05348 3.99106 6.53286 3.71426C7.01224 3.43746 7.40568 3.03342 7.66966 2.54686C7.93363 2.06031 8.05784 1.5102 8.02853 0.957424C9.67064 0.533047 11.3938 0.533735 13.0355 0.959425C13.0065 1.51219 13.1309 2.06221 13.3951 2.54863C13.6593 3.03505 14.0529 3.4389 14.5324 3.71548C15.0118 3.99207 15.5585 4.13061 16.1118 4.11578C16.6651 4.10094 17.2036 3.93331 17.6675 3.63142C18.2465 4.22142 18.7605 4.89242 19.1925 5.64142C19.6255 6.39042 19.9495 7.17142 20.1705 7.96742C19.6772 8.21833 19.2629 8.6008 18.9735 9.07253C18.6841 9.54426 18.5308 10.0869 18.5306 10.6403C18.5304 11.1938 18.6832 11.7365 18.9723 12.2084C19.2614 12.6804 19.6754 13.0632 20.1685 13.3144C19.7165 14.9489 18.8558 16.4415 17.6675 17.6514C17.2034 17.3497 16.6649 17.1823 16.1116 17.1676C15.5582 17.153 15.0116 17.2918 14.5322 17.5686C14.0528 17.8454 13.6594 18.2494 13.3954 18.736C13.1314 19.2225 13.0072 19.7726 13.0365 20.3254C11.3944 20.7498 9.6713 20.7491 8.02953 20.3234C8.05858 19.7707 7.93413 19.2206 7.66995 18.7342C7.40578 18.2478 7.01217 17.844 6.5327 17.5674C6.05323 17.2908 5.50659 17.1522 4.95326 17.1671C4.39993 17.1819 3.86149 17.3495 3.39753 17.6514C2.80652 17.0484 2.29413 16.373 1.87253 15.6414ZM7.53253 15.8374C8.59816 16.4521 9.39938 17.4384 9.78253 18.6074C10.2815 18.6544 10.7825 18.6554 11.2815 18.6084C11.6649 17.4393 12.4665 16.4529 13.5325 15.8384C14.5977 15.2221 15.8531 15.0209 17.0575 15.2734C17.3475 14.8654 17.5975 14.4304 17.8055 13.9754C16.985 13.0589 16.5316 11.8716 16.5325 10.6414C16.5325 9.38142 17.0025 8.20442 17.8055 7.30743C17.5961 6.85257 17.345 6.41806 17.0555 6.00942C15.8518 6.26173 14.5973 6.0609 13.5325 5.44542C12.4669 4.8308 11.6657 3.84441 11.2825 2.67542C10.7835 2.62842 10.2825 2.62742 9.78353 2.67442C9.40013 3.84357 8.59854 4.82998 7.53253 5.44442C6.46731 6.06074 5.21201 6.26194 4.00753 6.00942C3.7181 6.41771 3.46766 6.85229 3.25953 7.30743C4.0801 8.22398 4.53341 9.41121 4.53253 10.6414C4.53253 11.9014 4.06253 13.0784 3.25953 13.9754C3.469 14.4303 3.72007 14.8648 4.00953 15.2734C5.21325 15.0211 6.46774 15.2219 7.53253 15.8374ZM10.5325 13.6414C9.73688 13.6414 8.97382 13.3254 8.41121 12.7627C7.8486 12.2001 7.53253 11.4371 7.53253 10.6414C7.53253 9.84577 7.8486 9.08271 8.41121 8.5201C8.97382 7.95749 9.73688 7.64142 10.5325 7.64142C11.3282 7.64142 12.0912 7.95749 12.6539 8.5201C13.2165 9.08271 13.5325 9.84577 13.5325 10.6414C13.5325 11.4371 13.2165 12.2001 12.6539 12.7627C12.0912 13.3254 11.3282 13.6414 10.5325 13.6414ZM10.5325 11.6414C10.7977 11.6414 11.0521 11.5361 11.2396 11.3485C11.4272 11.161 11.5325 10.9066 11.5325 10.6414C11.5325 10.3762 11.4272 10.1219 11.2396 9.93432C11.0521 9.74678 10.7977 9.64142 10.5325 9.64142C10.2673 9.64142 10.013 9.74678 9.82542 9.93432C9.63789 10.1219 9.53253 10.3762 9.53253 10.6414C9.53253 10.9066 9.63789 11.161 9.82542 11.3485C10.013 11.5361 10.2673 11.6414 10.5325 11.6414Z" fill="#46BCFF"/>
</svg>
