<svg width="50" height="41" viewBox="0 0 50 41" fill="none" xmlns="http://www.w3.org/2000/svg">
<path d="M49.2256 5.33828C47.383 6.1533 45.4291 6.68857 43.4284 6.92636C45.5372 5.66515 47.1155 3.68024 47.8692 1.34153C45.8901 2.51931 43.7204 3.34473 41.459 3.79123C39.9399 2.16593 37.9265 1.08802 35.7316 0.725084C33.5368 0.362146 31.2835 0.734511 29.3221 1.78429C27.3607 2.83407 25.8011 4.50245 24.8857 6.53005C23.9704 8.55765 23.7505 10.8309 24.2604 12.9963C20.247 12.7952 16.3208 11.7522 12.7366 9.93518C9.15244 8.11816 5.99049 5.56768 3.456 2.44932C2.55888 3.99022 2.08744 5.74188 2.08996 7.52491C2.08996 11.0245 3.87113 14.1162 6.57907 15.9263C4.97653 15.8758 3.40926 15.4431 2.00791 14.664V14.7895C2.00839 17.1203 2.8149 19.3791 4.29071 21.183C5.76651 22.987 7.82077 24.2251 10.1052 24.6873C8.61755 25.0904 7.05768 25.1499 5.54368 24.8611C6.18776 26.8672 7.44312 28.6218 9.13398 29.879C10.8248 31.1362 12.8665 31.8332 14.9732 31.8723C12.8795 33.5167 10.4821 34.7322 7.91827 35.4495C5.35442 36.1668 2.67434 36.3717 0.03125 36.0525C4.64513 39.0197 10.0161 40.595 15.5018 40.5898C34.0688 40.5898 44.2224 25.2086 44.2224 11.8692C44.2224 11.4348 44.2103 10.9955 44.191 10.5659C46.1674 9.13753 47.8731 7.36808 49.228 5.34069L49.2256 5.33828Z" fill="white"/>
</svg>
